<?xml version="1.0" encoding="utf-8"?>
<!-- Generator: Adobe Illustrator 16.0.0, SVG Export Plug-In . SVG Version: 6.00 Build 0)  -->
<!DOCTYPE svg PUBLIC "-//W3C//DTD SVG 1.1//EN" "http://www.w3.org/Graphics/SVG/1.1/DTD/svg11.dtd">
<svg version="1.1" id="Layer_1" xmlns="http://www.w3.org/2000/svg" xmlns:xlink="http://www.w3.org/1999/xlink" x="0px" y="0px"
	 width="512px" height="512px" viewBox="0 0 512 512" enable-background="new 0 0 512 512" xml:space="preserve">
<path id="video-5-icon" fill="#FFFFFF" d="M243.391,166.834l215.748-42.766l-0.145-0.727L444.558,50.5L81.158,122.535
	C63.07,126.12,50,141.985,50,160.424c0,16.312,0,242.407,0,242.407c0,32.351,26.318,58.669,58.668,58.669h294.664
	c32.35,0,58.668-26.318,58.668-58.669V167.575v-0.741H243.391z M422,402.831c0,10.294-8.374,18.669-18.668,18.669H108.668
	C98.374,421.5,90,413.125,90,402.831V261.766h332V402.831z M339.527,186.834l-34.93,34.931h-52.427l34.931-34.931H339.527z
	 M395.225,80.668l41.14,27.529l-51.396,10.214l-41.17-27.55L395.225,80.668z M293.98,100.736l41.199,27.568l-51.394,10.213
	l-41.229-27.588L293.98,100.736z M192.625,120.827l41.257,27.608l-51.395,10.213L141.2,131.021L192.625,120.827z M183.77,186.834
	h52.426l-34.931,34.931h-52.426L183.77,186.834z M355.385,221.765l34.932-34.931h52.426l-34.932,34.931H355.385z M232.923,393.31
	V284.553l88.693,54.38L232.923,393.31z"/>
</svg>
