<?xml version="1.0" encoding="utf-8"?>
<!-- Generator: Adobe Illustrator 18.0.0, SVG Export Plug-In . SVG Version: 6.00 Build 0)  -->
<!DOCTYPE svg PUBLIC "-//W3C//DTD SVG 1.1//EN" "http://www.w3.org/Graphics/SVG/1.1/DTD/svg11.dtd">
<svg version="1.1" id="Layer_1" xmlns="http://www.w3.org/2000/svg" xmlns:xlink="http://www.w3.org/1999/xlink" x="0px" y="0px"
	 viewBox="0 0 512 512" enable-background="new 0 0 512 512" xml:space="preserve">
<path id="recycling-12" fill="#FFFFFF" d="M317.4,503.8c-16.2,4.5-33.1,7.3-50.5,8.2l1.8-43.2c11.9-0.9,23.6-2.6,34.8-5.6
	L317.4,503.8z M389.9,85.4C376,75.7,361,67.4,345.1,60.7l-13.3,40.9c10.8,4.8,20.9,10.8,30.6,17.4L389.9,85.4z M24.2,233
	c-2.8,14.4-4.2,29.3-4.2,44.6c0,2.9,0.3,5.7,0.4,8.6l42.4-5.9c0-0.9-0.1-1.8-0.1-2.6c0-10.8,1-21.3,2.8-31.5L24.2,233z M406.7,98.6
	l-27.1,33.2c9.6,8.2,18,17.5,25.9,27.4l34.7-25.8C430.3,120.6,419,109,406.7,98.6z M95.3,171.1c30.8-45.9,80.9-77.9,138.6-84.3v41.2
	l63.9-64L233.8,0v43.8C160,50.4,96,91.2,57.8,150.1L95.3,171.1z M323.7,456.4l14,40.9c15.7-6,30.7-13.6,44.6-22.6l-26.5-33.9
	C345.8,447,334.9,452,323.7,456.4z M29.3,212.2L70,225.1c3.5-12.4,8.4-24.3,14.2-35.6l-37.3-21C39.7,182.3,33.7,196.9,29.3,212.2z
	 M459.5,392.2c19.1-33.9,30.2-72.9,30.2-114.6c0-46.7-13.8-90.2-37.3-126.7l-34.6,25.7c18.3,29.4,29.2,63.9,29.2,101
	c0,34.2-9.4,66.1-25.2,94L384.2,351l25.5,86.9l86.9-25.5L459.5,392.2z M247.3,469.2c-67.9-2.7-126.8-40.5-158.9-96l37.8-21.9
	L38.6,328l-23.2,87.5l36.2-21c39.1,67.8,110.9,113.9,194,117.2L247.3,469.2z"/>
</svg>
