<?xml version="1.0" encoding="utf-8"?>
<!-- Generator: Adobe Illustrator 18.0.0, SVG Export Plug-In . SVG Version: 6.00 Build 0)  -->
<!DOCTYPE svg PUBLIC "-//W3C//DTD SVG 1.1//EN" "http://www.w3.org/Graphics/SVG/1.1/DTD/svg11.dtd">
<svg version="1.1" id="Layer_1" xmlns="http://www.w3.org/2000/svg" xmlns:xlink="http://www.w3.org/1999/xlink" x="0px" y="0px"
	 viewBox="0 0 512 512" enable-background="new 0 0 512 512" xml:space="preserve">
<g>
	<path fill="#FFFFFF" d="M185.3,133.1c-18.5,12.3-33,234.7-16.3,245.6c16.7,10.9,223.2-54.2,225-104.5
		C395.8,223.8,203.8,120.8,185.3,133.1z"/>
	<path fill="#FFFFFF" d="M256,0C114.6,0,0,114.6,0,256c0,141.4,114.6,256,256,256c141.4,0,256-114.6,256-256
		C512,114.6,397.4,0,256,0z M256,476.3c-121.7,0-220.3-98.6-220.3-220.3c0-121.7,98.6-220.3,220.3-220.3
		c121.7,0,220.3,98.6,220.3,220.3C476.3,377.7,377.7,476.3,256,476.3z"/>
</g>
</svg>
