<?xml version="1.0" encoding="utf-8"?>
<!-- Generator: Adobe Illustrator 16.0.0, SVG Export Plug-In . SVG Version: 6.00 Build 0)  -->
<!DOCTYPE svg PUBLIC "-//W3C//DTD SVG 1.1//EN" "http://www.w3.org/Graphics/SVG/1.1/DTD/svg11.dtd">
<svg version="1.1" id="Layer_1" xmlns="http://www.w3.org/2000/svg" xmlns:xlink="http://www.w3.org/1999/xlink" x="0px" y="0px"
	 width="200px" height="70px" viewBox="0 0 200 70" enable-background="new 0 0 200 70" xml:space="preserve">
<g>
	<path fill="#FFFFFF" d="M83.906,61.915c-0.389-0.554-0.282-0.787-0.432-2.336c-0.333-3.447-0.463-11.399-0.449-11.801l0.519-14.871
		c0.036-8.096-5.94-12.016-18.002-12.016C55.461,20.892,49.623,25,48.018,33h10.988c0.651-3,2.834-3.104,6.717-3.104
		c4.544,0,6.813,1.216,6.975,3.695c-0.083,2.395-2.528,3.789-7.258,4.367c-11.109,1.074-18.808,3.877-19.422,14.369
		c-0.337,9.667,6.763,14.539,17.284,13.713c4.59-0.32,8.518-1.097,11.636-2.906C74.958,63.263,74.861,64,75.771,66h10.182
		l-0.299-2.479C84.877,63.162,84.294,62.471,83.906,61.915z M72.384,47.282c-0.216,6.198-4.061,9.832-10.175,9.832
		c-3.47,0-5.23-1.651-5.356-5.122c0.113-3.223,2.416-5.287,6.823-6.113c3.246-0.661,6.252-1.57,8.851-2.645L72.384,47.282z"/>
	<path fill="#FFFFFF" d="M37.046,22c-2.727,0-4.591,1.075-5.506,3.636l-8.004,24.979c0,0-5.813-27.675-12.085-28.742
		c-1.291-0.22-8.502-0.087-9.999-0.087c6.983,13.937,13.781,37.993,13.781,37.993S16.683,66,22.734,66c1.784,0,5.508,0,5.508,0
		l17.314-44H37.046z"/>
	<path fill="#FFFFFF" d="M122.358,22c-2.727,0-4.591,1.075-5.507,3.636l-8.004,24.979c0,0-5.812-27.675-12.085-28.742
		c-1.291-0.22-8.502-0.087-9.999-0.087c6.983,13.937,13.781,37.993,13.781,37.993s1.45,6.221,7.5,6.221c1.783,0,5.509,0,5.509,0
		l17.313-44H122.358z"/>
	<path fill="#FFFFFF" d="M142.85,22h-5.702l-1.526,44h10.988l1.342-38.565C148.075,23.882,146.401,22,142.85,22z"/>
	<path fill="#FFFFFF" d="M137.511,2.972c-1.036,0.69-1.852,13.162-0.914,13.774c0.936,0.611,12.521-3.039,12.62-5.861
		C149.315,8.061,138.547,2.283,137.511,2.972z"/>
	<path fill="#FFFFFF" d="M177.147,20.402c-12.052,0-22.506,10.245-23.35,22.883c-0.845,12.637,8.241,22.882,20.293,22.882
		c12.051,0,22.505-10.245,23.349-22.882C198.283,30.647,189.197,20.402,177.147,20.402z M185.801,43.285
		c-0.415,6.209-5.552,11.244-11.473,11.244c-5.923,0-10.388-5.035-9.972-11.244c0.415-6.211,5.551-11.246,11.472-11.246
		C181.751,32.04,186.216,37.074,185.801,43.285z"/>
</g>
</svg>
